{
  "accessors": [
    {
      "bufferView": 2,
      "componentType": 5126,
      "count": 50471,
      "max": [
        9.604642868041992,
        -0.12366396933794022,
        6.119582653045654
      ],
      "min": [
        -12.497864723205566,
        -10.075675964355469,
        -15.96728515625
      ],
      "type": "VEC3"
    },
    {
      "bufferView": 2,
      "byteOffset": 605652,
      "componentType": 5126,
      "count": 50471,
      "max": [
        0.9999807476997375,
        0.9999991655349731,
        0.9999452829360962
      ],
      "min": [
        -0.9999983906745911,
        -0.9999991655349731,
        -0.9999988675117493
      ],
      "type": "VEC3"
    },
    {
      "bufferView": 3,
      "componentType": 5126,
      "count": 50471,
      "max": [
        1.0,
        1.0,
        0.7454182505607605,
        1.0
      ],
      "min": [
        -1.0,
        -1.0,
        -0.7741674780845642,
        -1.0
      ],
      "type": "VEC4"
    },
    {
      "bufferView": 1,
      "componentType": 5126,
      "count": 50471,
      "max": [
        0.9986770153045654,
        0.9733890295028687
      ],
      "min": [
        0.00024399999529123306,
        0.0012659999774768949
      ],
      "type": "VEC2"
    },
    {
      "bufferView": 0,
      "componentType": 5125,
      "count": 285438,
      "type": "SCALAR"
    }
  ],
  "asset": {
    "extras": {
      "author": "k28792300 (https://sketchfab.com/k28792300)",
      "license": "CC-BY-4.0 (http://creativecommons.org/licenses/by/4.0/)",
      "source": "https://sketchfab.com/3d-models/canned-tuna-2ed30f8891a34bbaaa665e07ca2feff5",
      "title": "Canned tuna 참치 통조림 캔"
    },
    "generator": "Sketchfab-15.5.0",
    "version": "2.0"
  },
  "bufferViews": [
    {
      "buffer": 0,
      "byteLength": 1141752,
      "name": "floatBufferViews",
      "target": 34963
    },
    {
      "buffer": 0,
      "byteLength": 403768,
      "byteOffset": 1141752,
      "byteStride": 8,
      "name": "floatBufferViews",
      "target": 34962
    },
    {
      "buffer": 0,
      "byteLength": 1211304,
      "byteOffset": 1545520,
      "byteStride": 12,
      "name": "floatBufferViews",
      "target": 34962
    },
    {
      "buffer": 0,
      "byteLength": 807536,
      "byteOffset": 2756824,
      "byteStride": 16,
      "name": "floatBufferViews",
      "target": 34962
    }
  ],
  "buffers": [
    {
      "byteLength": 3564360,
      "uri": "scene.bin"
    }
  ],
  "extensionsUsed": [
    "KHR_materials_specular"
  ],
  "images": [
    {
      "uri": "textures/0307_Model_Low_baseColor.png"
    },
    {
      "uri": "textures/0307_Model_Low_normal.png"
    }
  ],
  "materials": [
    {
      "doubleSided": true,
      "extensions": {
        "KHR_materials_specular": {
          "specularColorFactor": [
            1.0,
            1.0,
            1.0
          ],
          "specularFactor": 0.030890049021464933
        }
      },
      "name": "0307_Model_Low",
      "normalTexture": {
        "index": 1
      },
      "pbrMetallicRoughness": {
        "baseColorTexture": {
          "index": 0
        },
        "metallicFactor": 0.0,
        "roughnessFactor": 0.2216712956389063
      }
    }
  ],
  "meshes": [
    {
      "name": "Object_0",
      "primitives": [
        {
          "attributes": {
            "NORMAL": 1,
            "POSITION": 0,
            "TANGENT": 2,
            "TEXCOORD_0": 3
          },
          "indices": 4,
          "material": 0,
          "mode": 4
        }
      ]
    }
  ],
  "nodes": [
    {
      "children": [
        1
      ],
      "matrix": [
        -0.9736414551734924,
        -7.840040675962503e-17,
        0.2280840426683426,
        0.0,
        -0.00014514350914396346,
        0.9999998211860657,
        -0.0006195862661113605,
        0.0,
        -0.228083997964859,
        -0.0006363597931338175,
        -0.9736412763595581,
        0.0,
        0.0,
        0.0,
        0.0,
        1.0
      ],
      "name": "Sketchfab_model"
    },
    {
      "children": [
        2
      ],
      "name": "0307_Model_Low.obj.cleaner.materialmerger.gles"
    },
    {
      "mesh": 0,
      "name": "Object_2"
    }
  ],
  "samplers": [
    {
      "magFilter": 9729,
      "minFilter": 9987,
      "wrapS": 10497,
      "wrapT": 10497
    }
  ],
  "scene": 0,
  "scenes": [
    {
      "name": "Sketchfab_Scene",
      "nodes": [
        0
      ]
    }
  ],
  "textures": [
    {
      "sampler": 0,
      "source": 0
    },
    {
      "sampler": 0,
      "source": 1
    }
  ]
}
